# xmcd
#
# Track frame offsets: 
#        150
#        19197
#        38362
#        39227
#
# Disc length: 685 seconds
#
# Revision: 0
# Processed by: cddbd v1.5.2PL0 Copyright (c) Steve Scherf et al.
# Submitted via: ExactAudioCopyFreeDBPlugin 1.0
#
DISCID=1f02ab04
DTITLE=Blues Flowers - Gdybym tylko mógł
DYEAR=2002
DGENRE=Blues
TTITLE0=Gdybym tylko mógł
TTITLE1=Gdybym tylko mógł (instrumental)
TTITLE2=Spoko Wodza
TTITLE3=Moda na loda (demo)
EXTD=
EXTT0=
EXTT1=
EXTT2=
EXTT3=
PLAYORDER=
